<?xml version="1.0" encoding="utf-8"?>
<!-- Generator: Adobe Illustrator 24.0.0, SVG Export Plug-In . SVG Version: 6.00 Build 0)  -->
<svg version="1.1" id="Calque_1" xmlns="http://www.w3.org/2000/svg" xmlns:xlink="http://www.w3.org/1999/xlink" x="0px" y="0px"
	 viewBox="0 0 157.58 55.79" style="enable-background:new 0 0 157.58 55.79;" xml:space="preserve">
<style type="text/css">
	.st0{fill:#444443;}
	.st1{fill:#434443;}
</style>
<path d="M45.14,39.53h4.2l-1.22,1.19v3.86c0.14,0.02,0.3,0.04,0.48,0.05v-3.82l0.97-0.97L49.76,40l-0.92,0.91v3.72l0.29,0.03
	c0.46,0.04,0.9,0.06,1.33,0.06c0.62,0,1.15-0.03,1.6-0.09v-4.11l-1.09-1h4.13l-1.23,1.19v9.3l1.08,0.96h-4.11l1.22-1.05v-3.79
	c-0.5,0.12-1.01,0.18-1.54,0.18c-0.5,0-1.02-0.03-1.55-0.08l-0.13-0.01v3.78l1.47,1.7h-4.62l-0.23-0.24h4.36l-1.22-1.33v-4.11
	l0.26,0.02c0.79,0.06,1.36,0.09,1.71,0.09c0.57,0,1.07-0.08,1.49-0.23v-0.32c-0.56,0.08-1.21,0.13-1.95,0.13
	c-0.4,0-0.69-0.01-0.88-0.03l-0.9-0.08c-0.03-0.01-0.1-0.01-0.2-0.02v4.43l1.14,0.96h-4.13l1.2-1.05v-3.9c-0.5,0-0.9,0.2-1.2,0.59
	l-0.19-0.09c0.35-0.43,0.81-0.68,1.39-0.72v-0.33c-0.67,0-1.19,0.25-1.58,0.76l-0.13-0.09c0.35-0.86,0.92-1.36,1.72-1.52v-4.02
	L45.14,39.53z M55.47,40.03l-0.91,0.89v9.11l1.48,1.7h-4.63l-0.22-0.24h4.35l-1.2-1.35v-9.3l0.99-0.98L55.47,40.03z"/>
<path d="M66.9,39.41c1.45,0,2.6,0.55,3.47,1.64c0.87,1.1,1.3,2.56,1.3,4.39c0,1.73-0.43,3.11-1.28,4.14c-0.85,1.03-2,1.54-3.44,1.54
	c-1.14,0-2.15-0.36-3.03-1.09c-1.3-1.07-1.96-2.66-1.96-4.76c0-1.8,0.45-3.23,1.34-4.29C64.19,39.94,65.39,39.41,66.9,39.41
	 M66.9,40.18c-2.01,0-3.02,1.77-3.02,5.3c0,3.27,0.99,4.9,2.98,4.9c0.92,0,1.63-0.43,2.11-1.3c0.48-0.87,0.72-2.13,0.72-3.8
	c0-1.89-0.23-3.2-0.7-3.95C68.5,40.57,67.81,40.18,66.9,40.18 M69.75,39.87c0.85,0.41,1.52,1.11,2.02,2.11
	c0.49,0.99,0.74,2.14,0.74,3.45c0,1.92-0.49,3.46-1.46,4.64c-0.97,1.18-2.25,1.77-3.83,1.77c-1.01,0-1.96-0.34-2.84-1.03v-0.05
	c0.74,0.54,1.66,0.81,2.78,0.81c1.49,0,2.72-0.56,3.68-1.69c0.96-1.13,1.44-2.56,1.44-4.31c0-1.3-0.22-2.44-0.66-3.42
	c-0.44-0.98-1.06-1.7-1.86-2.19V39.87z M68.81,41.52l-0.15-0.09c-0.57-0.32-1.1-0.47-1.57-0.47c-1.57,0-2.35,1.54-2.35,4.62
	c0,2.25,0.49,3.74,1.46,4.47l-0.08,0.09c-0.59-0.42-1.02-0.98-1.27-1.66c-0.25-0.69-0.38-1.62-0.38-2.79c0-3.3,0.87-4.96,2.61-4.96
	C67.86,40.72,68.44,40.99,68.81,41.52"/>
<path d="M83.8,39.41c1.45,0,2.6,0.55,3.47,1.64c0.87,1.1,1.3,2.56,1.3,4.39c0,1.73-0.42,3.11-1.28,4.14c-0.85,1.03-2,1.54-3.44,1.54
	c-1.14,0-2.15-0.36-3.03-1.09c-1.31-1.07-1.96-2.66-1.96-4.76c0-1.8,0.45-3.23,1.34-4.29C81.08,39.94,82.29,39.41,83.8,39.41
	 M83.8,40.18c-2.01,0-3.02,1.77-3.02,5.3c0,3.27,0.99,4.9,2.97,4.9c0.92,0,1.63-0.43,2.11-1.3c0.49-0.87,0.73-2.13,0.73-3.8
	c0-1.89-0.23-3.2-0.7-3.95C85.4,40.57,84.7,40.18,83.8,40.18 M86.65,39.87c0.85,0.41,1.52,1.11,2.02,2.11
	c0.49,0.99,0.74,2.14,0.74,3.45c0,1.92-0.49,3.46-1.46,4.64c-0.97,1.18-2.25,1.77-3.84,1.77c-1.01,0-1.96-0.34-2.84-1.03v-0.05
	c0.74,0.54,1.66,0.81,2.78,0.81c1.49,0,2.72-0.56,3.68-1.69s1.44-2.56,1.44-4.31c0-1.3-0.22-2.44-0.66-3.42
	c-0.44-0.98-1.06-1.7-1.86-2.19V39.87z M85.71,41.52l-0.15-0.09c-0.57-0.32-1.1-0.47-1.57-0.47c-1.57,0-2.35,1.54-2.35,4.62
	c0,2.25,0.48,3.74,1.46,4.47l-0.08,0.09c-0.6-0.42-1.02-0.98-1.27-1.66c-0.25-0.69-0.38-1.62-0.38-2.79c0-3.3,0.87-4.96,2.61-4.96
	C84.76,40.72,85.34,40.99,85.71,41.52"/>
<path d="M95.76,39.53h4.18l-1.24,1.18v5.39l0.49-0.56v-4.76l1-0.97l0.13,0.2L99.4,40.9v4.36l2.77-3.3c0.4-0.48,0.6-0.9,0.6-1.29
	c0-0.23-0.11-0.44-0.34-0.65c-0.23-0.21-0.5-0.34-0.82-0.41v-0.09h4.71v0.09c-1.03,0.25-2.14,1.09-3.33,2.52l-1.24,1.47l3.29,6.4
	l1.5,0.97h-4.63l1.17-0.88l-2.21-4.43l-1.46,1.78v2.55l1.46,1.71h-4.58l-0.24-0.24h4.28l-1.13-1.36v-2.77l1.56-1.91l-0.2-0.39
	l-1.85,2.2v2.78l1.08,0.97h-4.09l1.22-1.05v-9.35L95.76,39.53z M106.76,40.34c-0.88,0.06-1.76,0.57-2.63,1.54l-1.56,1.73l3.15,6.39
	l2.53,1.71h-5.68l-0.25-0.24h5.17l-1.9-1.29l-3.26-6.56l1.66-1.88c0.87-0.97,1.76-1.5,2.69-1.59L106.76,40.34z"/>
<path d="M113.54,39.53h4.24l-1.2,1.21v9.29l1.13,0.95h-4.16l1.24-1.03v-9.31L113.54,39.53z M118.18,40.04l-0.91,0.9v9.1l1.5,1.68
	h-4.64l-0.22-0.24h4.34l-1.22-1.35v-9.27l1.01-1L118.18,40.04z"/>
<path d="M134.81,39.53c-0.68,0.35-1.12,0.67-1.31,0.96c-0.3,0.45-0.45,1.13-0.45,2.05v0.58v7.87h-1.51l-4.21-8.18v4.85l-0.01,0.4
	l0.11,1.29c0.12,0.6,0.39,1.04,0.81,1.32l0.07,0.06c-0.82-0.28-1.23-1.15-1.23-2.63l0.01-0.84v-4.88l-0.48-0.94v5.14
	c0,1.63,0.11,2.7,0.32,3.2c0.21,0.51,0.71,0.88,1.51,1.11l0.78,0.83h-4.84l-0.14-0.24h4.47l-0.46-0.49h-4.16
	c0.73-0.26,1.21-0.61,1.45-1.05c0.24-0.44,0.36-1.2,0.36-2.27v-7.14l-1.19-0.99h4.52l-1.27,0.85l4.32,8.43v-1.07l-3.71-7.21
	l1.25-0.85l0.17,0.17l-1.11,0.75l3.39,6.66v-4.17v-0.47c0-1.04-0.08-1.73-0.25-2.08c-0.17-0.35-0.59-0.68-1.25-1.01H134.81z
	 M135.12,40.19l-0.16,0.27c-0.46,0.11-0.77,0.31-0.93,0.6c-0.16,0.29-0.24,0.77-0.24,1.46v9.21h-1.92l-0.11-0.24h1.79V42.6
	c0-0.84,0.11-1.42,0.32-1.75C134.08,40.52,134.5,40.3,135.12,40.19"/>
<path d="M151.19,39.84l-1.67,3.29c-0.11-0.93-0.4-1.65-0.88-2.14c-0.48-0.49-1.11-0.74-1.9-0.74c-1.12,0-1.99,0.43-2.61,1.3
	c-0.62,0.87-0.93,2.09-0.93,3.65c0,3.45,1.41,5.17,4.23,5.17h1.44v-4.63h-2.25c-0.49,0-0.84-0.03-1.05-0.08
	c-0.21-0.05-0.41-0.17-0.61-0.35v-0.22c0.21,0.16,0.43,0.27,0.64,0.32c0.21,0.05,0.56,0.08,1.04,0.08h2.22v-0.48h-2.48h-0.4
	c-0.89,0-1.33-0.32-1.33-0.96c0-0.25,0.07-0.46,0.22-0.64c0.15-0.18,0.33-0.27,0.54-0.27c0.15,0,0.29,0.06,0.41,0.17
	c0.12,0.11,0.18,0.25,0.18,0.4c0,0.26-0.1,0.41-0.29,0.46l-0.21,0.04c-0.07,0.02-0.11,0.05-0.11,0.09c0,0.08,0.1,0.12,0.3,0.12h0.3
	h5.89l-1.23,1.2V50l1.14,0.98h-4.56h-0.9c-0.76,0-1.38-0.09-1.88-0.28c-0.49-0.18-0.99-0.51-1.5-0.98c-1.19-1.1-1.79-2.56-1.79-4.4
	c0-1.9,0.57-3.38,1.7-4.45c0.99-0.93,2.16-1.4,3.52-1.4c0.61,0,1.3,0.11,2.09,0.32c0.8,0.22,1.33,0.33,1.59,0.33
	C150.42,40.13,150.8,40.03,151.19,39.84 M148.87,41.76l-0.16-0.11c-0.68-0.48-1.3-0.72-1.86-0.72c-0.68,0-1.27,0.24-1.76,0.72
	c-0.36,0.36-0.61,0.82-0.77,1.4c-0.16,0.58-0.24,1.34-0.24,2.28c0,1.2,0.12,2.12,0.36,2.76c0.24,0.64,0.68,1.21,1.31,1.72v0.1
	c-0.69-0.41-1.19-0.99-1.49-1.74c-0.3-0.75-0.46-1.76-0.46-3.04c0-1.41,0.27-2.51,0.8-3.29c0.53-0.78,1.27-1.17,2.23-1.17
	c0.83,0,1.51,0.35,2.04,1.04V41.76z M152.26,44.9l-0.92,0.92v4.19l1.49,1.71l-3.55-0.03l-3.21,0.04c-0.2,0-0.36-0.01-0.46-0.02
	c-0.38-0.04-0.75-0.2-1.13-0.49h0.19c0.4,0.18,0.96,0.27,1.66,0.27l0.45-0.01h5.56l-1.24-1.37v-4.38l1.03-1.04L152.26,44.9z
	 M151.72,40.4l-1.53,3l-0.21-0.1l1.54-3.01L151.72,40.4z"/>
<path d="M53.61,21.67c-0.32,0.43-0.57,0.87-0.76,1.34c-0.37,0.92-0.62,1.48-0.74,1.68l-0.05,0.05c-0.02-0.07-0.04-0.12-0.06-0.15
	c-0.17-0.55-0.31-0.93-0.42-1.14c-0.11-0.21-0.27-0.42-0.49-0.61c-0.56-0.49-1.19-0.74-1.89-0.74c-0.65,0-1.2,0.18-1.63,0.54
	C47.14,23,46.92,23.45,46.92,24c0,1.03,0.77,1.72,2.32,2.1l1.55,0.38c2.2,0.53,3.31,1.69,3.31,3.49c0,1-0.38,1.84-1.13,2.52
	c-0.75,0.68-1.69,1.02-2.8,1.02c-0.7,0-1.47-0.11-2.33-0.32l-1.07-0.26c-0.43-0.1-0.79-0.16-1.07-0.16c-0.37,0-0.76,0.12-1.15,0.36
	l-0.07-0.13c0.76-1.14,1.29-2.23,1.59-3.26l0.17,0.05c0.13,0.96,0.51,1.7,1.15,2.23c0.64,0.53,1.48,0.8,2.52,0.8
	c0.82,0,1.47-0.19,1.95-0.57c0.48-0.38,0.72-0.89,0.72-1.53c0-0.74-0.33-1.35-1.01-1.83c-0.48-0.34-1.47-0.66-2.97-0.95
	c-1.15-0.23-1.99-0.6-2.51-1.13c-0.52-0.52-0.78-1.25-0.78-2.19c0-0.96,0.35-1.75,1.04-2.35c0.69-0.6,1.59-0.9,2.7-0.9
	c0.71,0,1.55,0.13,2.5,0.39c0.45,0.12,0.78,0.18,0.99,0.18c0.3,0,0.63-0.1,0.98-0.31L53.61,21.67z M53.61,27.51
	c0.83,0.63,1.24,1.49,1.24,2.58c0,1.17-0.45,2.15-1.35,2.96c-0.9,0.81-2,1.21-3.3,1.21c-0.66,0-1.26-0.07-1.79-0.2l-1.47-0.36
	c-0.34-0.09-0.71-0.13-1.1-0.13c-0.35,0-0.67,0.07-0.96,0.21l-0.11-0.26c0.32-0.15,0.64-0.22,0.97-0.22c0.37,0,0.78,0.05,1.25,0.16
	l1.41,0.34c0.56,0.13,1.15,0.2,1.78,0.2c1.22,0,2.26-0.39,3.12-1.17c0.86-0.78,1.29-1.72,1.29-2.82c0-0.93-0.33-1.75-0.99-2.45
	V27.51z M45.95,27.18l0.31,0.17c0.2,0.36,0.79,0.66,1.77,0.9l1.47,0.37c1,0.25,1.67,0.47,2,0.65c0.33,0.18,0.57,0.45,0.71,0.82
	l-0.06,0.04c-0.28-0.32-0.57-0.55-0.89-0.69c-0.32-0.15-0.94-0.33-1.85-0.54c-1.32-0.31-2.2-0.57-2.65-0.79
	C46.3,27.87,46.04,27.56,45.95,27.18 M47.1,30.15c0.23,1.1,0.83,1.88,1.81,2.33v0.07c-1.13-0.33-1.82-1.12-2.06-2.36L47.1,30.15z
	 M51.51,23.87c-0.67-0.71-1.39-1.07-2.16-1.07c-0.46,0-0.85,0.13-1.15,0.4c-0.3,0.27-0.46,0.61-0.46,1.02
	c0,0.45,0.31,0.92,0.92,1.39l0.07,0.05l-0.04,0.07c-0.81-0.36-1.21-0.88-1.21-1.57c0-0.48,0.17-0.86,0.51-1.16
	c0.34-0.3,0.79-0.45,1.34-0.45c0.52,0,0.99,0.11,1.38,0.33c0.4,0.22,0.68,0.54,0.87,0.94L51.51,23.87z M54.18,22.05l-0.08,0.14
	c-0.25,0.42-0.46,0.82-0.64,1.21c-0.43,0.9-0.67,1.4-0.72,1.5l-0.05,0.06l-0.22-0.09l0.04-0.08c0.18-0.4,0.43-0.93,0.77-1.57
	l0.62-1.21l0.05-0.07L54.18,22.05z"/>
<path d="M73.37,21.57l-1.26,1.27v9.4l1.13,1.07h-4.21l1.27-1.07v-6.16l-2.9,7.98h-0.88l-0.07-0.25h0.8l3.06-8.51v-1.4l-3.4,9.4
	h-0.64l-2.51-7.39v4.84c0,0.65,0.04,1.1,0.13,1.37c0.09,0.27,0.29,0.56,0.61,0.89l0.82,1.04h-4.79l-0.17-0.25h4.49l-0.34-0.5h-4.08
	l0.19-0.1c0.68-0.37,1.13-0.75,1.34-1.13c0.22-0.38,0.32-0.98,0.32-1.81V22.7l-1.21-1.13h4.73l-1.33,1.2l2.59,7.66l0.33-0.8
	l-2.34-6.79l1.2-0.89l0.19,0.16l-1.14,0.81l2.18,6.38l2.36-6.53l-1.12-1.2H73.37z M63.01,23.74v6.57c0,1.01,0.1,1.7,0.29,2.08
	c0.19,0.38,0.59,0.65,1.19,0.82l-0.08-0.14c-0.6-0.42-0.9-1.01-0.9-1.79V30.6v-5.41L63.01,23.74z M73.89,22.28l-1.04,0.74v9.23
	l1.6,1.81h-4.86l-0.13-0.25h4.43l-1.27-1.44v-9.51l1.08-0.74L73.89,22.28z"/>
<path d="M80.38,21.57h4.34l-1.23,1.25v9.53l1.16,0.97h-4.27l1.27-1.05v-9.55L80.38,21.57z M85.13,22.09l-0.93,0.93v9.33l1.54,1.72
	h-4.76l-0.23-0.25h4.45l-1.25-1.38v-9.5l1.03-1.03L85.13,22.09z"/>
<path d="M101.94,21.57c-0.06,0.1-0.09,0.17-0.11,0.21l-0.62,1.1c-0.21,0.39-0.41,0.88-0.59,1.46l-0.02,0.05l-0.09-0.06l-0.03-0.12
	c-0.18-0.7-0.43-1.18-0.75-1.45c-0.33-0.27-0.83-0.4-1.5-0.4c-0.27,0-0.55,0.01-0.82,0.04h-0.11v9.92l1.08,1h-4.18l1.28-1.07v-9.11
	l-0.65-0.01c-0.63,0-1.08,0.12-1.34,0.37c-0.27,0.25-0.42,0.68-0.47,1.3h-0.24c0.07-0.71,0.25-1.21,0.55-1.49
	c0.3-0.28,0.8-0.42,1.5-0.42l0.55,0.01h0.1v-0.45c-0.31-0.04-0.61-0.05-0.89-0.05c-0.79,0-1.36,0.16-1.7,0.48
	c-0.35,0.32-0.54,0.86-0.58,1.63h-0.11c-0.26-0.85-0.67-1.79-1.22-2.84l-0.06-0.09H101.94z M100.07,23.57
	c-0.47-0.31-1.02-0.46-1.65-0.46c-0.14,0-0.29,0.01-0.44,0.03l0.04,9.2l1.46,1.72H94.8l-0.21-0.25h4.39l-1.23-1.4v-9.54l0.5-0.01
	c0.59,0,1.01,0.05,1.26,0.14C99.75,23.1,99.94,23.29,100.07,23.57 M102.52,22.14c-0.42,0.54-0.86,1.43-1.33,2.67l-0.04,0.09
	l-0.2-0.17l0.03-0.08c0.45-1.26,0.89-2.14,1.31-2.64l0.04-0.06L102.52,22.14z"/>
<path d="M108.42,21.57h4.31l-1.25,1.22v3.96c0.14,0.02,0.3,0.04,0.49,0.05v-3.92l1-0.99l0.18,0.16l-0.94,0.93v3.82l0.3,0.03
	c0.47,0.04,0.92,0.06,1.36,0.06c0.63,0,1.18-0.03,1.64-0.09v-4.21l-1.12-1.03h4.23l-1.26,1.22v9.54l1.11,0.99h-4.21l1.25-1.07v-3.88
	c-0.51,0.12-1.04,0.18-1.58,0.18c-0.51,0-1.05-0.03-1.6-0.08l-0.13-0.01v3.87l1.51,1.74H109l-0.24-0.25h4.47l-1.24-1.36v-4.21
	l0.27,0.02c0.81,0.06,1.39,0.09,1.75,0.09c0.59,0,1.1-0.08,1.53-0.24v-0.33c-0.57,0.09-1.24,0.13-2.01,0.13
	c-0.41,0-0.71-0.01-0.89-0.03l-0.93-0.08c-0.04-0.01-0.11-0.01-0.21-0.02v4.54l1.17,0.99h-4.23l1.23-1.07v-4
	c-0.51,0-0.92,0.2-1.23,0.6l-0.19-0.09c0.35-0.44,0.83-0.69,1.42-0.74v-0.34c-0.69,0-1.22,0.26-1.62,0.78l-0.14-0.09
	c0.36-0.88,0.94-1.4,1.76-1.56v-4.12L108.42,21.57z M119.02,22.08l-0.93,0.91v9.34l1.52,1.74h-4.75l-0.23-0.25h4.46l-1.22-1.38
	v-9.54l1.01-1.01L119.02,22.08z"/>
<path d="M24.91,23.49l-1.54,0.13c-0.12,0.01-0.21,0.1-0.21,0.22c-0.05,1.18-0.27,7.07-0.11,8c0.17,1.03,0.8,4.67,1.07,4.76
	c0.22,0.07,1.04,0.25,1.35,0.32c0.07,0.02,0.15,0,0.2-0.05l0.84-0.72c0.02-0.02,0.05-0.03,0.07-0.04l1.36-0.5
	c0.01-0.01,0.03-0.01,0.04-0.01l1.06-0.19c0.02,0,0.04-0.01,0.06,0l1.02,0.09l0.28-0.48c-1.41-9.2,1.44-13.08,2.25-13.98
	c0.1-0.11,0.07-0.29-0.06-0.36l-1.11-0.62c-0.12-0.07-0.27-0.01-0.33,0.11c-0.46,1.08-2.35,5.53-2.62,6.12
	c-0.27,0.59-2.71,0.05-3.32-0.1c-0.09-0.02-0.15-0.09-0.17-0.18C24.92,25.55,24.63,24.02,24.91,23.49c0.03-0.05,0.06-0.09,0.1-0.13"
	/>
<path d="M37.16,38.45c0-0.01,0.01-0.02,0.02-0.03C37.12,38.44,37.12,38.44,37.16,38.45"/>
<path d="M39.3,46.58c-0.02-1.33-1.44-6.67-1.84-7.7c-0.04-0.11-0.06-0.18-0.06-0.18c-0.03-0.18-0.19-0.23-0.26-0.25
	c-0.15,0.26-0.44,0.52-0.81,0.78c0.35-0.09,0.4,0.12,0.69,0.17c0.39,0.07,0.04,0.7,0.04,0.7c-0.06,0.26-1.18,0.76-1.41,0.76
	c-0.22,0-1.16-0.41-1.31-0.47c-0.02,0.01-0.03,0.02-0.03,0.02v-0.03c0,0,0.02,0.01,0.03,0.01c0.07-0.05,0.25-0.18,0.51-0.34
	c-2.53,1.15-6.18,2.02-6.44,2.08c-0.38,0.08-1.07-1.29-1.12-1.53c-0.04-0.21-2.02-0.29-2.5-0.12c-0.05,0.2-0.11,0.39-0.19,0.58
	c0.43,2.26,1.57,4.6,1.58,6.89c0.38,1.92,0.74,3.95,1,4.14c0.53,0.39,8.65,0.09,9.42,0.06c0.03,0,0.04-0.03,0.04-0.06
	c0.08-1,0.63-6.97,0.81-8.49c0.01-0.06,0.1-0.06,0.11,0c0.15,0.79,0.56,2.67,0.67,3.08c0.13,0.47-0.4,4.97-0.08,5.45
	c0.02,0.03,0.02,0.05,0.05,0.05l0.89,0.06c0.03,0,0.05-0.02,0.06-0.05C39.3,51.73,39.33,48.08,39.3,46.58"/>
<path d="M35.83,39.46c-0.38,0.21-0.71,0.42-0.97,0.58c0.57-0.26,1.08-0.53,1.48-0.81C36.23,39.26,36.06,39.33,35.83,39.46"/>
<path d="M28.25,19.47c-0.58,0-1.15-0.1-1.56-0.36l-0.23-0.14l-0.01-0.27c-0.01-0.36-0.06-0.75-0.11-0.99
	c-2.22,0.64-2.82,0.53-3.1,0.12c-0.11-0.16-0.13-0.33-0.1-0.49c-0.05-0.1-0.11-0.15-0.17-0.17c-0.36-0.16-1.11,0.13-1.4,0.29
	c-1.69,0.57-2.81-0.12-3.35-0.45c-0.08-0.05-0.15-0.09-0.2-0.12c-0.52-0.14-0.98-0.5-1.29-1.04c-0.68-1.21-0.32-3-0.19-3.54
	c-0.02-0.15,0.01-0.35,0.18-0.59c0.9-1.27,7.62-5.69,10.35-4.2c2.17,1.19,4.19,4.24,4.2,5c0,0.02-0.02,2.2-0.35,3.07
	c0.24,1.43,0.32,3.13-0.53,3.48C29.93,19.27,29.08,19.47,28.25,19.47z M27.45,18.37c0.71,0.24,2,0.02,2.57-0.21
	c0.12-0.19,0.1-1.42-0.1-2.54l-0.04-0.22l0.14-0.18c0.14-0.28,0.27-2.03,0.26-2.67c-0.08-0.47-1.8-3.12-3.69-4.15
	c-0.54-0.3-1.47-0.25-2.69,0.13c-2.68,0.84-5.7,2.98-6.3,3.67l-0.06,0.22c-0.15,0.52-0.42,2.07,0.06,2.94
	c0.17,0.3,0.42,0.5,0.76,0.59c0.16,0.07,0.26,0.13,0.38,0.2c0.47,0.29,1.26,0.78,2.43,0.39c0.06-0.04,1.3-0.68,2.2-0.29
	c0.26,0.12,0.6,0.36,0.76,0.9c0.27-0.01,0.86-0.1,2.06-0.45c0.07-0.03,0.22-0.1,0.4-0.08h0C26.8,16.65,27.35,16.72,27.45,18.37z"/>
<path d="M23.85,24.29l-0.19-0.02c-2.92-0.35-5.53-6.76-5.81-7.49l0.93-0.37c0.7,1.78,2.91,6.38,4.85,6.83
	c0.14-0.07,0.33-0.16,0.62-0.29c1.37-0.63,5.01-2.29,4.63-3.9l0.97-0.23c0.58,2.41-3.31,4.19-5.18,5.05
	c-0.32,0.15-0.56,0.25-0.65,0.31L23.85,24.29z"/>
<path d="M28.27,43.24c-0.18,0-0.32-0.02-0.44-0.06c-1.15-0.46-2.17-4.35-2.36-5.42c-0.17-0.95-0.12-1.41,0.17-1.67
	c0.6-0.53,2.94-1.04,3.6-1c0.08,0.01,0.34,0.02,0.51,0.22l0.06,0.09c0.03,0.04,0.07,0.13,0.11,0.25c0.36,1,1.3,4.34,1.67,5.7
	c0.87-0.32,1.8-0.68,2.67-1.05l0,0c-0.01,0,2.27-1.47,3.31-2.93c0.81-1.14,0.28-4.58,0.01-5.82c-0.54-2.94-1.49-7.57-1.87-8.35
	c-0.29-0.6-3.54-2.4-6.37-3.72l0.42-0.91c1.46,0.68,6.26,3,6.84,4.19c0.57,1.15,1.81,7.83,1.95,8.59c0.11,0.48,1.04,4.9-0.18,6.6
	c-1.16,1.63-3.56,3.17-3.66,3.23C33.15,41.86,29.73,43.24,28.27,43.24z M26.38,36.79c-0.11,0.9,1.17,5.06,1.83,5.46
	c0.28,0.08,1.24-0.17,2.44-0.58c-0.35-1.28-1.28-4.6-1.63-5.58C28.42,36.13,26.82,36.52,26.38,36.79z M26.4,36.72"/>
<path d="M29.69,36.27l-0.45-0.9c0.93-0.46,1.58-1.06,1.84-1.31c0.03-1.64-0.5-3.86-0.5-3.89l0.97-0.23c0.02,0.1,0.61,2.56,0.52,4.35
	l-0.01,0.18l-0.12,0.13C31.92,34.64,31.07,35.58,29.69,36.27z"/>
<path d="M19.62,43.88c-0.9,0-1.81-0.03-2.27-0.15l0,0.01c-0.79-0.14-1.03-0.52-1.09-0.81c-0.16-0.78,0.83-1.41,0.87-1.43
	c0.06-0.04,0.12-0.07,0.18-0.09c1.48-1.03,2.56-3.29,2.73-3.8c-0.09-0.22-0.45-0.73-1.09-1.51c-0.15-0.19-0.26-0.32-0.28-0.37
	c-0.17-0.28-0.18-1.07,0.31-1.53c1-0.92,2.83,0.38,3.44,0.81c2.51,1.78,3.2,1.58,3.21,1.58c0,0-0.05,0.02-0.11,0.09l0.78,0.62
	c-0.32,0.4-1.32,0.74-4.46-1.48c-1.34-0.95-1.99-1.02-2.16-0.9c-0.09,0.06-0.12,0.24-0.12,0.34c0.04,0.05,0.1,0.12,0.17,0.2
	c1.11,1.36,1.4,1.88,1.31,2.29c-0.11,0.47-1.33,3.26-3.24,4.53l-0.29,0.19l-0.01-0.01c-0.08,0.07-0.16,0.15-0.21,0.22
	c0.05,0.02,0.12,0.04,0.23,0.06l0.44,0.07c0.94,0.05,3.35,0.04,4.03-0.01c0.26-0.06,0.97-0.93,1.27-1.29
	c0.47-0.57,0.65-0.8,0.96-0.8c0,0,0,0,0,0c0.46-0.12,2-0.43,3.02,0.23l-0.55,0.84c-0.63-0.41-1.84-0.21-2.28-0.09
	c-0.09,0.1-0.25,0.29-0.38,0.45c-0.77,0.94-1.37,1.61-1.97,1.66C22.03,43.82,20.84,43.88,19.62,43.88z"/>
<path d="M26.18,25.85c-0.21,0-0.38-0.04-0.52-0.12c-0.21-0.12-0.69-0.39-0.31-2.89l0.99,0.15c-0.11,0.75-0.15,1.56-0.1,1.88
	c0.29-0.02,1.11-0.32,2.12-1.38l0.73,0.69C27.98,25.34,26.9,25.85,26.18,25.85z"/>
<path d="M15.61,30.96c-0.05,0-0.09,0-0.14-0.01c-0.68-0.13-2.55-2.05-2.63-2.57c-0.12-0.75,3.86-5.31,3.91-5.35
	c0.6-0.62,1.63,0.23,3.01,1.51c0.11,0.1,0.2,0.18,0.25,0.22c0.48,0.4,0.29,0.86,0.22,1.02c0.07,0.05,0.17,0.12,0.3,0.21
	c0.65-0.42,2.56-1.89,2.73-2.32c0.16-0.43,0.47-0.54,0.63-0.56c0.52-0.08,0.96,0.4,1.12,0.61l-0.79,0.62
	c-0.04-0.04-0.08-0.09-0.12-0.13c-0.62,0.98-3.13,2.74-3.43,2.84l-0.2,0.07l-0.19-0.1c-0.26-0.14-0.46-0.26-0.63-0.39l-3.59,4.15
	C16,30.87,15.82,30.96,15.61,30.96z M15.35,30.06c-0.03,0.03-0.06,0.06-0.09,0.11L15.35,30.06z M13.88,28.29
	c0.24,0.33,1.17,1.26,1.63,1.58l3.71-4.3c0.02-0.05,0.03-0.09,0.05-0.13c-0.05-0.05-0.12-0.11-0.19-0.18
	c-1.02-0.94-1.51-1.29-1.74-1.4C16.67,24.62,14.31,27.53,13.88,28.29z"/>
<path d="M20.61,33.61c-0.17,0-0.32-0.02-0.46-0.07c-0.91-0.32-3.98-3.12-4.26-3.51l0.81-0.58c0.3,0.38,3.14,2.93,3.77,3.15
	c0.34,0.12,1.64-0.34,2.59-0.82l0.46,0.89C23.05,32.91,21.6,33.61,20.61,33.61z"/>
<path d="M11.39,26.37c-0.79,0-1.68-0.67-3.36-2.46c-0.17-0.18-0.25-0.42-0.22-0.66c0.15-1.31,0.69-4.36,2.38-4.39
	c1.62-0.02,2.87,0.44,3.22,0.59l-0.39,0.92c-0.22-0.09-1.39-0.55-2.82-0.51c-0.56,0.01-1.15,1.48-1.39,3.42
	c2.28,2.42,2.55,2.24,3.27,1.78c0.12-0.08,0.26-0.17,0.4-0.25c0.78-0.45,0.74-1.96,0.66-2.51l0.99-0.15
	c0.02,0.11,0.38,2.64-1.15,3.52c-0.13,0.08-0.25,0.15-0.36,0.23C12.17,26.2,11.79,26.37,11.39,26.37z M8.8,23.37
	C8.8,23.37,8.8,23.37,8.8,23.37C8.8,23.37,8.8,23.37,8.8,23.37z"/>
<path d="M15.8,24.19c-0.17-1.11-0.84-3.47-1.82-3.67c-1.09-0.22-1.91-0.13-2.27-0.07c-0.05,0.15-0.09,0.35-0.04,0.49
	c0.01,0.04,0.06,0.15,0.29,0.23c0.49,0.18,0.79,0.16,1.03,0.15c0.25-0.02,0.68-0.05,0.92,0.4c0.23,0.41,0.26,0.66,0.25,0.8l-1-0.09
	c0,0.06-0.01,0-0.07-0.11c-0.01,0-0.03,0-0.04,0c-0.28,0.02-0.75,0.05-1.45-0.21c-0.55-0.2-0.78-0.56-0.88-0.83
	c-0.25-0.69,0.14-1.43,0.18-1.51l0.1-0.17l0.19-0.06c0.05-0.02,1.22-0.36,2.98,0c1.94,0.4,2.55,4.08,2.61,4.5L15.8,24.19z
	 M13.03,22.2C13.03,22.2,13.03,22.2,13.03,22.2C13.03,22.2,13.03,22.2,13.03,22.2z"/>
<path d="M9.19,27.21l-0.35-0.09c-0.38-0.13-1.58-1.21-1.66-1.74c-0.03-0.18-0.09-0.59,1.21-1.65l0.33-0.27l0.32,0.27
	c0.66,0.57,1.4,1.2,1.5,1.28l0.19,0.14l0.03,0.26c0.02,0.32-0.17,0.53-1.09,1.34c-0.12,0.11-0.22,0.2-0.26,0.24L9.19,27.21z
	 M8.21,25.29c0.14,0.17,0.51,0.54,0.77,0.75c0.01-0.01,0.02-0.02,0.03-0.03c0.13-0.12,0.36-0.33,0.55-0.5
	c-0.24-0.2-0.55-0.47-0.85-0.73C8.49,24.97,8.3,25.17,8.21,25.29z M8.16,25.38L8.16,25.38L8.16,25.38z"/>
<polygon points="14.54,20.28 13.76,19.66 14.9,18.24 14.24,17.66 12.4,19.73 11.65,19.07 14.15,16.25 16.28,18.12 "/>
<path d="M14.64,13.83c-0.1-0.09-0.26-0.1-0.36,0c-0.42,0.39-1.45,1.37-1.41,1.68c0.05,0.39,1.23,1.39,1.23,1.39l3.89,3.26
	c0,0,0.19,0.04,0.2-0.05s-0.07-1.05-0.46-2.03c-0.21-0.52-0.14-0.83-0.02-1.01c0.1-0.15,0.08-0.35-0.06-0.47L14.64,13.83z"/>
<path d="M13.43,27.59c-0.12-0.18-1.05-0.84-1.84-1.32l0.52-0.86c1.4,0.84,2.17,1.48,2.29,1.9L13.43,27.59z"/>
<path d="M14.09,42.54c-0.68,0-1.74-0.57-2.38-0.95c-0.95-0.39-6.3-3.83-6.81-4.21c-0.41-0.3-0.58-0.77-0.49-1.33
	c0.11-0.61,0.56-1.34,0.9-1.44c0.31-0.09,8.39-0.17,8.82-0.09c0.25,0.05,0.59,0.28,1.18,0.69c0.28,0.19,0.71,0.49,0.93,0.6
	c0.03-0.08,0.06-0.2,0.07-0.28c0.05-0.21,0.1-0.44,0.23-0.6c0.1-0.13,0.33-0.43,2.55-0.3l-0.04,0.75c-0.8-0.04-1.78-0.03-1.98,0.07
	c0.03-0.02,0,0.14-0.03,0.25c-0.08,0.33-0.23,1-0.87,0.88c-0.28-0.06-0.67-0.32-1.29-0.75c-0.31-0.21-0.77-0.53-0.9-0.57
	c-0.42-0.05-7.5,0.01-8.43,0.07c-0.14,0.15-0.43,0.63-0.43,1.03c0,0.18,0.07,0.32,0.21,0.42c0.94,0.68,6.17,3.96,6.64,4.12l0.1,0.04
	c0.86,0.52,1.82,0.92,2.04,0.86c0.35-0.15,1.93-1.32,2.85-2.03c0.11-0.06,1.32-0.65,2.52-0.01l-0.35,0.66
	c-0.86-0.46-1.77-0.02-1.78-0.02c-0.35,0.28-2.42,1.86-2.96,2.09C14.31,42.52,14.21,42.54,14.09,42.54z"/>
<rect x="12.33" y="40.3" transform="matrix(0.5975 -0.8019 0.8019 0.5975 -27.2627 27.0462)" width="1.97" height="0.75"/>
<rect x="11.05" y="39.61" transform="matrix(0.5732 -0.8194 0.8194 0.5732 -27.6439 26.8911)" width="1.88" height="0.75"/>
<rect x="9.3" y="38.62" transform="matrix(0.5116 -0.8592 0.8592 0.5116 -28.594 27.6907)" width="1.52" height="0.75"/>
<path class="st0" d="M38.64,9.3c-0.41,0-0.83-0.13-1.19-0.39c-0.44-0.32-0.73-0.79-0.81-1.33c-0.08-0.54,0.05-1.08,0.37-1.52
	c0.66-0.91,1.94-1.11,2.85-0.45c0.44,0.32,0.73,0.79,0.81,1.33c0.08,0.54-0.05,1.08-0.37,1.52C39.89,9.01,39.27,9.3,38.64,9.3z
	 M38.67,6.22c-0.32,0-0.64,0.15-0.85,0.43c-0.17,0.23-0.23,0.5-0.19,0.78c0.04,0.27,0.19,0.51,0.41,0.68
	c0.46,0.33,1.11,0.23,1.45-0.24c0.17-0.23,0.23-0.5,0.19-0.78c-0.04-0.27-0.19-0.51-0.41-0.68C39.09,6.28,38.88,6.22,38.67,6.22z"/>
<path class="st1" d="M35.67,21.16c-0.29,0-0.52-0.03-0.62-0.07l-0.4-0.15l0-0.01c-0.69-0.3-2.07-1.03-2.61-2.38
	c-0.74-1.82,0.26-3.37,0.3-3.44l4.96-6.87l0.81,0.59l-4.95,6.85c-0.02,0.03-0.74,1.17-0.2,2.49c0.55,1.36,2.38,1.95,2.4,1.96
	l0.08,0.02c0.39,0.04,1.83-0.03,2.29-0.82l0.93-1.33c-0.86,0.32-1.91,0.58-2.87,0.41l0.17-0.99c1.7,0.3,3.93-1.14,3.95-1.15
	l2.15-1.4l-3.49,4.99C37.97,20.91,36.53,21.16,35.67,21.16z"/>
<path d="M30.65,19.68l-0.63-0.77c0.1-0.08,1.01-0.82,1.79-1.05l0.29,0.96C31.59,18.97,30.88,19.49,30.65,19.68z"/>
<path d="M35.26,21.29l-0.93-0.37c0.13-0.33,0.23-0.84,0.26-1.01c0.13-0.45,0.09-0.75-0.12-0.97c-0.32-0.34-0.96-0.46-1.26-0.38
	l-0.22-0.97c0.64-0.15,1.65,0.06,2.22,0.68c0.32,0.34,0.64,0.95,0.36,1.88c0,0,0,0,0,0C35.57,20.14,35.45,20.82,35.26,21.29z"/>
<rect x="34.27" y="20.93" transform="matrix(0.3165 -0.9486 0.9486 0.3165 3.3868 47.5584)" width="0.85" height="1"/>
<path d="M13.29,44.62c-0.42,0-0.78-0.36-1.21-0.81c-0.39-0.4-0.34-0.7-0.29-0.86c0.22-0.62,1.43-0.85,2.05-0.93
	c-0.04-0.35-0.13-0.72-0.22-1.07c-0.21-0.86-0.47-1.94,0.56-2.22c0.58-0.16,1.09-0.04,1.44,0.32c0.51,0.53,0.52,1.41,0.31,2.04
	c-0.38,1.14-1.27,1.29-1.31,1.3l-0.01-0.04c0,0.03,0,0.06,0,0.09c-0.01,0.33-0.06,0.63-0.16,0.89c-0.32,0.82-0.61,1.19-1.01,1.27
	C13.39,44.61,13.33,44.62,13.29,44.62z M12.61,43.28c0.22,0.23,0.56,0.58,0.68,0.58c0,0,0.17-0.06,0.46-0.81
	c0.03-0.09,0.06-0.18,0.08-0.28c-0.63,0.09-1.25,0.29-1.34,0.43l-0.21,0.27L12.61,43.28z M14.67,39.41c-0.08,0-0.18,0.01-0.29,0.04
	c-0.26,0.07-0.27,0.32-0.02,1.31c0.07,0.28,0.14,0.57,0.19,0.88c0.12-0.04,0.49-0.21,0.68-0.78c0.16-0.48,0.1-1.04-0.15-1.29
	C15.03,39.53,14.92,39.41,14.67,39.41z"/>
<rect x="4.98" y="35.46" transform="matrix(1 -1.953121e-03 1.953121e-03 1 -0.0697 0.02)" width="10.44" height="0.5"/>
<rect x="16.74" y="35.85" width="2.39" height="0.5"/>
<path d="M12.16,42.86c-0.56,0-1.01-0.15-1.05-0.16l0.31-0.95c0.26,0.08,1.02,0.23,1.48-0.08c0.31-0.22,0.77-0.48,1.19-0.26
	c0.18,0.09,0.39,0.3,0.39,0.76H13.5c0.01,0.01,0.04,0.06,0.1,0.1c0.08,0.06,0.16,0.06,0.18,0.05c0,0-0.09,0.02-0.3,0.17
	C13.06,42.78,12.58,42.86,12.16,42.86z"/>
</svg>
